<?xml version="1.0" encoding="UTF-8" standalone="no"?>
<!-- Created with Inkscape (http://www.inkscape.org/) -->

<svg
   xmlns:dc="http://purl.org/dc/elements/1.1/"
   xmlns:cc="http://creativecommons.org/ns#"
   xmlns:rdf="http://www.w3.org/1999/02/22-rdf-syntax-ns#"
   xmlns:svg="http://www.w3.org/2000/svg"
   xmlns="http://www.w3.org/2000/svg"
   xmlns:sodipodi="http://sodipodi.sourceforge.net/DTD/sodipodi-0.dtd"
   xmlns:inkscape="http://www.inkscape.org/namespaces/inkscape"
   width="210mm"
   height="297mm"
   viewBox="0 0 210 297"
   version="1.1"
   id="svg8"
   inkscape:version="0.92.0 r15299"
   sodipodi:docname="Logo2GTExport_Complete.svg">
  <defs
     id="defs2" />
  <sodipodi:namedview
     id="base"
     pagecolor="#ffffff"
     bordercolor="#666666"
     borderopacity="1.0"
     inkscape:pageopacity="0.0"
     inkscape:pageshadow="2"
     inkscape:zoom="0.49497475"
     inkscape:cx="-75.754492"
     inkscape:cy="591.44568"
     inkscape:document-units="mm"
     inkscape:current-layer="layer10"
     showgrid="false"
     inkscape:window-width="1404"
     inkscape:window-height="1008"
     inkscape:window-x="-7"
     inkscape:window-y="0"
     inkscape:window-maximized="0" />
  <metadata
     id="metadata5">
    <rdf:RDF>
      <cc:Work
         rdf:about="">
        <dc:format>image/svg+xml</dc:format>
        <dc:type
           rdf:resource="http://purl.org/dc/dcmitype/StillImage" />
        <dc:title></dc:title>
      </cc:Work>
    </rdf:RDF>
  </metadata>
  <g
     inkscape:groupmode="layer"
     id="layer10"
     inkscape:label="Subline">
    <g
       aria-label="CLEAR THINKING"
       style="font-style:normal;font-variant:normal;font-weight:normal;font-stretch:normal;font-size:7.74906588px;line-height:4.84316587px;font-family:'Century Gothic';-inkscape-font-specification:'Century Gothic, Normal';font-variant-ligatures:normal;font-variant-caps:normal;font-variant-numeric:normal;font-feature-settings:normal;text-align:start;letter-spacing:0px;word-spacing:0px;writing-mode:lr-tb;text-anchor:start;display:inline;fill:#000000;fill-opacity:1;stroke:none;stroke-width:0.19372663"
       id="text5177">
      <path
         d="m 82.496257,279.21386 -0.438912,0.33676 q -0.363237,-0.47297 -0.87404,-0.71513 -0.507019,-0.24594 -1.116199,-0.24594 -0.665935,0 -1.233493,0.32162 -0.567559,0.31783 -0.881608,0.8589 -0.310265,0.53729 -0.310265,1.21079 0,1.01782 0.696205,1.6989 0.699989,0.68107 1.763215,0.68107 1.169171,0 1.956185,-0.91567 l 0.438912,0.33297 q -0.41621,0.52972 -1.040524,0.82107 -0.620531,0.28756 -1.388627,0.28756 -1.460517,0 -2.304287,-0.97241 -0.707557,-0.82107 -0.707557,-1.98268 0,-1.22214 0.855122,-2.05456 0.858905,-0.8362 2.149155,-0.8362 0.779447,0 1.407545,0.31027 0.628098,0.30648 1.029173,0.86268 z"
         style="font-style:normal;font-variant:normal;font-weight:normal;font-stretch:normal;font-size:7.74906588px;font-family:'Century Gothic';-inkscape-font-specification:'Century Gothic, Normal';font-variant-ligatures:normal;font-variant-caps:normal;font-variant-numeric:normal;font-feature-settings:normal;text-align:start;writing-mode:lr-tb;text-anchor:start;stroke-width:0.19372663"
         id="path8259"
         inkscape:connector-curvature="0" />
      <path
         d="m 83.608672,278.18091 h 0.559991 v 5.02857 h 2.137803 v 0.53729 h -2.697794 z"
         style="font-style:normal;font-variant:normal;font-weight:normal;font-stretch:normal;font-size:7.74906588px;font-family:'Century Gothic';-inkscape-font-specification:'Century Gothic, Normal';font-variant-ligatures:normal;font-variant-caps:normal;font-variant-numeric:normal;font-feature-settings:normal;text-align:start;writing-mode:lr-tb;text-anchor:start;stroke-width:0.19372663"
         id="path8261"
         inkscape:connector-curvature="0" />
      <path
         d="m 87.199425,278.18091 h 3.189679 v 0.54864 h -2.633472 v 1.74051 h 2.610769 v 0.54486 h -2.610769 v 2.18321 h 2.610769 v 0.54864 h -3.166976 z"
         style="font-style:normal;font-variant:normal;font-weight:normal;font-stretch:normal;font-size:7.74906588px;font-family:'Century Gothic';-inkscape-font-specification:'Century Gothic, Normal';font-variant-ligatures:normal;font-variant-caps:normal;font-variant-numeric:normal;font-feature-settings:normal;text-align:start;writing-mode:lr-tb;text-anchor:start;stroke-width:0.19372663"
         id="path8263"
         inkscape:connector-curvature="0" />
      <path
         d="m 93.631755,278.18091 2.595634,5.56586 h -0.597828 l -0.87404,-1.83133 H 92.35664 l -0.870256,1.83133 h -0.620531 l 2.629688,-5.56586 z m -0.06811,1.18052 -0.957282,2.01672 h 1.903213 z"
         style="font-style:normal;font-variant:normal;font-weight:normal;font-stretch:normal;font-size:7.74906588px;font-family:'Century Gothic';-inkscape-font-specification:'Century Gothic, Normal';font-variant-ligatures:normal;font-variant-caps:normal;font-variant-numeric:normal;font-feature-settings:normal;text-align:start;writing-mode:lr-tb;text-anchor:start;stroke-width:0.19372663"
         id="path8265"
         inkscape:connector-curvature="0" />
      <path
         d="m 97.124133,278.18091 h 1.108631 q 0.927012,0 1.256196,0.0757 0.495668,0.11351 0.80593,0.4881 0.31027,0.37081 0.31027,0.91566 0,0.45405 -0.21567,0.79837 -0.21189,0.34432 -0.609183,0.52215 -0.397291,0.17405 -1.09728,0.17784 l 2.001593,2.58807 h -0.688641 l -1.997806,-2.5881 H 97.68034 v 2.58807 h -0.556207 z m 0.556207,0.54485 v 1.89187 l 0.957282,0.008 q 0.556207,0 0.821068,-0.10594 0.268645,-0.10595 0.41621,-0.33675 0.15135,-0.23459 0.15135,-0.52216 0,-0.27999 -0.15135,-0.50702 -0.151349,-0.2308 -0.397291,-0.32918 -0.245942,-0.0984 -0.817285,-0.0984 z"
         style="font-style:normal;font-variant:normal;font-weight:normal;font-stretch:normal;font-size:7.74906588px;font-family:'Century Gothic';-inkscape-font-specification:'Century Gothic, Normal';font-variant-ligatures:normal;font-variant-caps:normal;font-variant-numeric:normal;font-feature-settings:normal;text-align:start;writing-mode:lr-tb;text-anchor:start;stroke-width:0.19372663"
         id="path8267"
         inkscape:connector-curvature="0" />
      <path
         d="m 103.39755,278.72198 v -0.54107 h 3.05346 v 0.54107 h -1.24106 v 5.02479 h -0.56756 v -5.02479 z"
         style="font-style:normal;font-variant:normal;font-weight:normal;font-stretch:normal;font-size:7.74906588px;font-family:'Century Gothic';-inkscape-font-specification:'Century Gothic, Normal';font-variant-ligatures:normal;font-variant-caps:normal;font-variant-numeric:normal;font-feature-settings:normal;text-align:start;writing-mode:lr-tb;text-anchor:start;stroke-width:0.19372663"
         id="path8269"
         inkscape:connector-curvature="0" />
      <path
         d="m 107.22667,278.18091 h 0.56 v 2.33456 h 2.83022 v -2.33456 h 0.55999 v 5.56586 h -0.55999 v -2.68645 h -2.83022 v 2.68645 h -0.56 z"
         style="font-style:normal;font-variant:normal;font-weight:normal;font-stretch:normal;font-size:7.74906588px;font-family:'Century Gothic';-inkscape-font-specification:'Century Gothic, Normal';font-variant-ligatures:normal;font-variant-caps:normal;font-variant-numeric:normal;font-feature-settings:normal;text-align:start;writing-mode:lr-tb;text-anchor:start;stroke-width:0.19372663"
         id="path8271"
         inkscape:connector-curvature="0" />
      <path
         d="m 112.452,278.18091 h 0.5562 v 5.56586 h -0.5562 z"
         style="font-style:normal;font-variant:normal;font-weight:normal;font-stretch:normal;font-size:7.74906588px;font-family:'Century Gothic';-inkscape-font-specification:'Century Gothic, Normal';font-variant-ligatures:normal;font-variant-caps:normal;font-variant-numeric:normal;font-feature-settings:normal;text-align:start;writing-mode:lr-tb;text-anchor:start;stroke-width:0.19372663"
         id="path8273"
         inkscape:connector-curvature="0" />
      <path
         d="m 114.30602,283.74677 v -5.56586 h 0.12108 l 3.70048,4.26047 v -4.26047 h 0.54864 v 5.56586 h -0.12486 l -3.67021,-4.20751 v 4.20751 z"
         style="font-style:normal;font-variant:normal;font-weight:normal;font-stretch:normal;font-size:7.74906588px;font-family:'Century Gothic';-inkscape-font-specification:'Century Gothic, Normal';font-variant-ligatures:normal;font-variant-caps:normal;font-variant-numeric:normal;font-feature-settings:normal;text-align:start;writing-mode:lr-tb;text-anchor:start;stroke-width:0.19372663"
         id="path8275"
         inkscape:connector-curvature="0" />
      <path
         d="m 120.03836,278.18091 h 0.56756 v 2.08861 l 2.22105,-2.08861 h 0.75296 l -2.67509,2.49726 2.88319,3.0686 h -0.73782 l -2.44429,-2.59564 v 2.59564 h -0.56756 z"
         style="font-style:normal;font-variant:normal;font-weight:normal;font-stretch:normal;font-size:7.74906588px;font-family:'Century Gothic';-inkscape-font-specification:'Century Gothic, Normal';font-variant-ligatures:normal;font-variant-caps:normal;font-variant-numeric:normal;font-feature-settings:normal;text-align:start;writing-mode:lr-tb;text-anchor:start;stroke-width:0.19372663"
         id="path8277"
         inkscape:connector-curvature="0" />
      <path
         d="m 124.54478,278.18091 h 0.5562 v 5.56586 h -0.5562 z"
         style="font-style:normal;font-variant:normal;font-weight:normal;font-stretch:normal;font-size:7.74906588px;font-family:'Century Gothic';-inkscape-font-specification:'Century Gothic, Normal';font-variant-ligatures:normal;font-variant-caps:normal;font-variant-numeric:normal;font-feature-settings:normal;text-align:start;writing-mode:lr-tb;text-anchor:start;stroke-width:0.19372663"
         id="path8279"
         inkscape:connector-curvature="0" />
      <path
         d="m 126.3988,283.74677 v -5.56586 h 0.12108 l 3.70048,4.26047 v -4.26047 h 0.54864 v 5.56586 h -0.12486 l -3.67021,-4.20751 v 4.20751 z"
         style="font-style:normal;font-variant:normal;font-weight:normal;font-stretch:normal;font-size:7.74906588px;font-family:'Century Gothic';-inkscape-font-specification:'Century Gothic, Normal';font-variant-ligatures:normal;font-variant-caps:normal;font-variant-numeric:normal;font-feature-settings:normal;text-align:start;writing-mode:lr-tb;text-anchor:start;stroke-width:0.19372663"
         id="path8281"
         inkscape:connector-curvature="0" />
      <path
         d="m 137.50025,279.11549 -0.43135,0.40864 q -0.46539,-0.45783 -1.0216,-0.69242 -0.55243,-0.23838 -1.07836,-0.23838 -0.65459,0 -1.24863,0.32162 -0.59026,0.32162 -0.91566,0.87404 -0.3254,0.54864 -0.3254,1.1616 0,0.6281 0.33675,1.19566 0.33675,0.56377 0.93079,0.88918 0.59405,0.32161 1.3016,0.32161 0.85891,0 1.45295,-0.48432 0.59405,-0.48431 0.70378,-1.25619 h -1.77457 v -0.53729 h 2.39888 q -0.008,1.29025 -0.76809,2.05078 -0.75675,0.75674 -2.02808,0.75674 -1.54376,0 -2.44429,-1.05187 -0.69242,-0.80972 -0.69242,-1.87295 0,-0.79079 0.39729,-1.47186 0.3973,-0.68107 1.08972,-1.06323 0.69242,-0.38594 1.56646,-0.38594 0.70755,0 1.33187,0.25729 0.62431,0.25351 1.21836,0.81729 z"
         style="font-style:normal;font-variant:normal;font-weight:normal;font-stretch:normal;font-size:7.74906588px;font-family:'Century Gothic';-inkscape-font-specification:'Century Gothic, Normal';font-variant-ligatures:normal;font-variant-caps:normal;font-variant-numeric:normal;font-feature-settings:normal;text-align:start;writing-mode:lr-tb;text-anchor:start;stroke-width:0.19372663"
         id="path8283"
         inkscape:connector-curvature="0" />
    </g>
  </g>
</svg>
