<?xml version="1.0" encoding="UTF-8" standalone="no"?>
<!-- Created with Inkscape (http://www.inkscape.org/) -->

<svg
   xmlns:dc="http://purl.org/dc/elements/1.1/"
   xmlns:cc="http://creativecommons.org/ns#"
   xmlns:rdf="http://www.w3.org/1999/02/22-rdf-syntax-ns#"
   xmlns:svg="http://www.w3.org/2000/svg"
   xmlns="http://www.w3.org/2000/svg"
   xmlns:sodipodi="http://sodipodi.sourceforge.net/DTD/sodipodi-0.dtd"
   xmlns:inkscape="http://www.inkscape.org/namespaces/inkscape"
   width="210mm"
   height="297mm"
   viewBox="0 0 210 297"
   version="1.1"
   id="svg8"
   inkscape:version="0.92.0 r15299"
   sodipodi:docname="Logo2GTExport_Complete.svg">
  <defs
     id="defs2" />
  <sodipodi:namedview
     id="base"
     pagecolor="#ffffff"
     bordercolor="#666666"
     borderopacity="1.0"
     inkscape:pageopacity="0.0"
     inkscape:pageshadow="2"
     inkscape:zoom="0.49497475"
     inkscape:cx="-75.754492"
     inkscape:cy="591.44568"
     inkscape:document-units="mm"
     inkscape:current-layer="layer10"
     showgrid="false"
     inkscape:window-width="1404"
     inkscape:window-height="1008"
     inkscape:window-x="-7"
     inkscape:window-y="0"
     inkscape:window-maximized="0" />
  <metadata
     id="metadata5">
    <rdf:RDF>
      <cc:Work
         rdf:about="">
        <dc:format>image/svg+xml</dc:format>
        <dc:type
           rdf:resource="http://purl.org/dc/dcmitype/StillImage" />
        <dc:title></dc:title>
      </cc:Work>
    </rdf:RDF>
  </metadata>
  <g
     inkscape:groupmode="layer"
     id="layer10"
     inkscape:label="Subline">
    <g
       aria-label="CLEAR THINKING"
       style="font-style:normal;font-variant:normal;font-weight:normal;font-stretch:normal;font-size:7.74906588px;line-height:4.84316587px;font-family:'Century Gothic';-inkscape-font-specification:'Century Gothic, Normal';font-variant-ligatures:normal;font-variant-caps:normal;font-variant-numeric:normal;font-feature-settings:normal;text-align:start;letter-spacing:0px;word-spacing:0px;writing-mode:lr-tb;text-anchor:start;display:inline;fill:#000000;fill-opacity:1;stroke:none;stroke-width:0.19372663"
       id="text5177">
      <path
         d="m 82.496257,279.21386 -0.438912,0.33676 q -0.363237,-0.47297 -0.87404,-0.71513 -0.507019,-0.24594 -1.116199,-0.24594 -0.665935,0 -1.233493,0.32162 -0.567559,0.31783 -0.881608,0.8589 -0.310265,0.53729 -0.310265,1.21079 0,1.01782 0.696205,1.6989 0.699989,0.68107 1.763215,0.68107 1.169171,0 1.956185,-0.91567 l 0.438912,0.33297 q -0.41621,0.52972 -1.040524,0.82107 -0.620531,0.28756 -1.388627,0.28756 -1.460517,0 -2.304287,-0.97241 -0.707557,-0.82107 -0.707557,-1.98268 0,-1.22214 0.855122,-2.05456 0.858905,-0.8362 2.149155,-0.8362 0.779447,0 1.407545,0.31027 0.628098,0.30648 1.029173,0.86268 z"
         style="font-style:normal;font-variant:normal;font-weight:normal;font-stretch:normal;font-size:7.74906588px;font-family:'Century Gothic';-inkscape-font-specification:'Century Gothic, Normal';font-variant-ligatures:normal;font-variant-caps:normal;font-variant-numeric:normal;font-feature-settings:normal;text-align:start;writing-mode:lr-tb;text-anchor:start;stroke-width:0.19372663"
         id="path8259"
         inkscape:connector-curvature="0" />
      <path
         d="m 83.608672,278.18091 h 0.559991 v 5.02857 h 2.137803 v 0.53729 h -2.697794 z"
         style="font-style:normal;font-variant:normal;font-weight:normal;font-stretch:normal;font-size:7.74906588px;font-family:'Century Gothic';-inkscape-font-specification:'Century Gothic, Normal';font-variant-ligatures:normal;font-variant-caps:normal;font-variant-numeric:normal;font-feature-settings:normal;text-align:start;writing-mode:lr-tb;text-anchor:start;stroke-width:0.19372663"
         id="path8261"
         inkscape:connector-curvature="0" />
      <path
         d="m 87.199425,278.18091 h 3.189679 v 0.54864 h -2.633472 v 1.74051 h 2.610769 v 0.54486 h -2.610769 v 2.18321 h 2.610769 v 0.54864 h -3.166976 z"
         style="font-style:normal;font-variant:normal;font-weight:normal;font-stretch:normal;font-size:7.74906588px;font-family:'Century Gothic';-inkscape-font-specification:'Century Gothic, Normal';font-variant-ligatures:normal;font-variant-caps:normal;font-variant-numeric:normal;font-feature-settings:normal;text-align:start;writing-mode:lr-tb;text-anchor:start;stroke-width:0.19372663"
         id="path8263"
         inkscape:connector-curvature="0" />
      <path
         d="m 93.631755,278.18091 2.595634,5.56586 h -0.597828 l -0.87404,-1.83133 H 92.35664 l -0.870256,1.83133 h -0.620531 l 2.629688,-5.56586 z m -0.06811,1.18052 -0.957282,2.01672 h 1.903213 z"
         style="font-style:normal;font-variant:normal;font-weight:normal;font-stretch:normal;font-size:7.74906588px;font-family:'Century Gothic';-inkscape-font-specification:'Century Gothic, Normal';font-variant-ligatures:normal;font-variant-caps:normal;font-variant-numeric:normal;font-feature-settings:normal;text-align:start;writing-mode:lr-tb;text-anchor:start;stroke-width:0.19372663"
         id="path8265"
         inkscape:connector-curvature="0" />
      <path
         d="m 97.124133,278.18091 h 1.108631 q 0.927012,0 1.256196,0.0757 0.495668,0.11351 0.80593,0.4881 0.31027,0.37081 0.31027,0.91566 0,0.45405 -0.21567,0.79837 -0.21189,0.34432 -0.609183,0.52215 -0.397291,0.17405 -1.09728,0.17784 l 2.001593,2.58807 h -0.688641 l -1.997806,-2.5881 H 97.68034 v 2.58807 h -0.556207 z m 0.556207,0.54485 v 1.89187 l 0.957282,0.008 q 0.556207,0 0.821068,-0.10594 0.268645,-0.10595 0.41621,-0.33675 0.15135,-0.23459 0.15135,-0.52216 0,-0.27999 -0.15135,-0.50702 -0.151349,-0.2308 -0.397291,-0.32918 -0.245942,-0.0984 -0.817285,-0.0984 z"
         style="font-style:normal;font-variant:normal;font-weight:normal;font-stretch:normal;font-size:7.74906588px;font-family:'Century Gothic';-inkscape-font-specification:'Century Gothic, Normal';font-variant-ligatures:normal;font-variant-caps:normal;font-variant-numeric:normal;font-feature-settings:normal;text-align:start;writing-mode:lr-tb;text-anchor:start;stroke-width:0.19372663"
         id="path8267"
         inkscape:connector-curvature="0" />
      <path
         d="m 103.39755,278.72198 v -0.54107 h 3.05346 v 0.54107 h -1.24106 v 5.02479 h -0.56756 v -5.02479 z"
         style="font-style:normal;font-variant:normal;font-weight:normal;font-stretch:normal;font-size:7.74906588px;font-family:'Century Gothic';-inkscape-font-specification:'Century Gothic, Normal';font-variant-ligatures:normal;font-variant-caps:normal;font-variant-numeric:normal;font-feature-settings:normal;text-align:start;writing-mode:lr-tb;text-anchor:start;stroke-width:0.19372663"
         id="path8269"
         inkscape:connector-curvature="0" />
      <path
         d="m 107.22667,278.18091 h 0.56 v 2.33456 h 2.83022 v -2.33456 h 0.55999 v 5.56586 h -0.55999 v -2.68645 h -2.83022 v 2.68645 h -0.56 z"
         style="font-style:normal;font-variant:normal;font-weight:normal;font-stretch:normal;font-size:7.74906588px;font-family:'Century Gothic';-inkscape-font-specification:'Century Gothic, Normal';font-variant-ligatures:normal;font-variant-caps:normal;font-variant-numeric:normal;font-feature-settings:normal;text-align:start;writing-mode:lr-tb;text-anchor:start;stroke-width:0.19372663"
         id="path8271"
         inkscape:connector-curvature="0" />
      <path
         d="m 112.452,278.18091 h 0.5562 v 5.56586 h -0.5562 z"
         style="font-style:normal;font-variant:normal;font-weight:normal;font-stretch:normal;font-size:7.74906588px;font-family:'Century Gothic';-inkscape-font-specification:'Century Gothic, Normal';font-variant-ligatures:normal;font-variant-caps:normal;font-variant-numeric:normal;font-feature-settings:normal;text-align:start;writing-mode:lr-tb;text-anchor:start;stroke-width:0.19372663"
         id="path8273"
         inkscape:connector-curvature="0" />
      <path
         d="m 114.30602,283.74677 v -5.56586 h 0.12108 l 3.70048,4.26047 v -4.26047 h 0.54864 v 5.56586 h -0.12486 l -3.67021,-4.20751 v 4.20751 z"
         style="font-style:normal;font-variant:normal;font-weight:normal;font-stretch:normal;font-size:7.74906588px;font-family:'Century Gothic';-inkscape-font-specification:'Century Gothic, Normal';font-variant-ligatures:normal;font-variant-caps:normal;font-variant-numeric:normal;font-feature-settings:normal;text-align:start;writing-mode:lr-tb;text-anchor:start;stroke-width:0.19372663"
         id="path8275"
         inkscape:connector-curvature="0" />
      <path
         d="m 120.03836,278.18091 h 0.56756 v 2.08861 l 2.22105,-2.08861 h 0.75296 l -2.67509,2.49726 2.88319,3.0686 h -0.73782 l -2.44429,-2.59564 v 2.59564 h -0.56756 z"
         style="font-style:normal;font-variant:normal;font-weight:normal;font-stretch:normal;font-size:7.74906588px;font-family:'Century Gothic';-inkscape-font-specification:'Century Gothic, Normal';font-variant-ligatures:normal;font-variant-caps:normal;font-variant-numeric:normal;font-feature-settings:normal;text-align:start;writing-mode:lr-tb;text-anchor:start;stroke-width:0.19372663"
         id="path8277"
         inkscape:connector-curvature="0" />
      <path
         d="m 124.54478,278.18091 h 0.5562 v 5.56586 h -0.5562 z"
         style="font-style:normal;font-variant:normal;font-weight:normal;font-stretch:normal;font-size:7.74906588px;font-family:'Century Gothic';-inkscape-font-specification:'Century Gothic, Normal';font-variant-ligatures:normal;font-variant-caps:normal;font-variant-numeric:normal;font-feature-settings:normal;text-align:start;writing-mode:lr-tb;text-anchor:start;stroke-width:0.19372663"
         id="path8279"
         inkscape:connector-curvature="0" />
      <path
         d="m 126.3988,283.74677 v -5.56586 h 0.12108 l 3.70048,4.26047 v -4.26047 h 0.54864 v 5.56586 h -0.12486 l -3.67021,-4.20751 v 4.20751 z"
         style="font-style:normal;font-variant:normal;font-weight:normal;font-stretch:normal;font-size:7.74906588px;font-family:'Century Gothic';-inkscape-font-specification:'Century Gothic, Normal';font-variant-ligatures:normal;font-variant-caps:normal;font-variant-numeric:normal;font-feature-settings:normal;text-align:start;writing-mode:lr-tb;text-anchor:start;stroke-width:0.19372663"
         id="path8281"
         inkscape:connector-curvature="0" />
      <path
         d="m 137.50025,279.11549 -0.43135,0.40864 q -0.46539,-0.45783 -1.0216,-0.69242 -0.55243,-0.23838 -1.07836,-0.23838 -0.65459,0 -1.24863,0.32162 -0.59026,0.32162 -0.91566,0.87404 -0.3254,0.54864 -0.3254,1.1616 0,0.6281 0.33675,1.19566 0.33675,0.56377 0.93079,0.88918 0.59405,0.32161 1.3016,0.32161 0.85891,0 1.45295,-0.48432 0.59405,-0.48431 0.70378,-1.25619 h -1.77457 v -0.53729 h 2.39888 q -0.008,1.29025 -0.76809,2.05078 -0.75675,0.75674 -2.02808,0.75674 -1.54376,0 -2.44429,-1.05187 -0.69242,-0.80972 -0.69242,-1.87295 0,-0.79079 0.39729,-1.47186 0.3973,-0.68107 1.08972,-1.06323 0.69242,-0.38594 1.56646,-0.38594 0.70755,0 1.33187,0.25729 0.62431,0.25351 1.21836,0.81729 z"
         style="font-style:normal;font-variant:normal;font-weight:normal;font-stretch:normal;font-size:7.74906588px;font-family:'Century Gothic';-inkscape-font-specification:'Century Gothic, Normal';font-variant-ligatures:normal;font-variant-caps:normal;font-variant-numeric:normal;font-feature-settings:normal;text-align:start;writing-mode:lr-tb;text-anchor:start;stroke-width:0.19372663"
         id="path8283"
         inkscape:connector-curvature="0" />
    </g>
  </g>
  <g
     style="display:inline"
     id="g5179"
     inkscape:groupmode="layer"
     inkscape:label="Text">
    <g
       aria-label="LOGI"
       style="font-style:normal;font-variant:normal;font-weight:normal;font-stretch:normal;font-size:33.51698303px;line-height:20.9481144px;font-family:'OCR A Extended';-inkscape-font-specification:'OCR A Extended, Normal';font-variant-ligatures:normal;font-variant-caps:normal;font-variant-numeric:normal;font-feature-settings:normal;text-align:start;letter-spacing:0px;word-spacing:0px;writing-mode:lr-tb;text-anchor:start;fill:#000000;fill-opacity:1;stroke:none;stroke-width:0.83792454"
       id="text5161">
      <path
         d="m 44.476868,270.95074 v -20.37531 q 0,-0.55643 0.409142,-0.96558 0.409143,-0.40914 0.965578,-0.40914 0.556434,0 0.965577,0.40914 0.409143,0.40915 0.409143,0.96558 v 17.62587 h 9.721234 q 0.5728,0 0.981943,0.40915 0.425508,0.39277 0.425508,0.96557 0,0.5728 -0.425508,0.98195 -0.409143,0.39277 -0.981943,0.39277 z"
         style="font-style:normal;font-variant:normal;font-weight:normal;font-stretch:normal;font-size:33.51698303px;font-family:'OCR A Extended';-inkscape-font-specification:'OCR A Extended, Normal';font-variant-ligatures:normal;font-variant-caps:normal;font-variant-numeric:normal;font-feature-settings:normal;text-align:start;writing-mode:lr-tb;text-anchor:start;stroke-width:0.83792454"
         id="path8250"
         inkscape:connector-curvature="0" />
      <path
         d="m 74.884365,251.21369 3.027658,6.16988 q 0.638262,1.26016 0.638262,2.73307 0,1.44018 -0.638262,2.71671 l -3.027658,6.10441 q -0.965577,2.01298 -3.273142,2.01298 -1.096503,0 -1.980252,-0.5728 -0.867383,-0.5728 -1.309257,-1.44018 l -3.044023,-6.10441 q -0.605531,-1.1947 -0.605531,-2.71671 0,-1.52201 0.605531,-2.73307 l 3.044023,-6.16988 q 1.03104,-2.01298 3.289509,-2.01298 2.2912,0 3.273142,2.01298 z m -4.189622,1.37472 -2.847635,5.79347 q -0.392777,0.86738 -0.392777,1.70203 0,0.90011 0.392777,1.7184 l 2.929463,5.85893 q 0.22912,0.54006 0.834652,0.54006 0.523702,0 0.80192,-0.54006 l 2.945828,-5.85893 q 0.409143,-0.86738 0.409143,-1.7184 0,-0.90011 -0.409143,-1.70203 l -2.880366,-5.79347 q -0.278217,-0.63826 -0.867382,-0.63826 -0.589166,0 -0.91648,0.63826 z"
         style="font-style:normal;font-variant:normal;font-weight:normal;font-stretch:normal;font-size:33.51698303px;font-family:'OCR A Extended';-inkscape-font-specification:'OCR A Extended, Normal';font-variant-ligatures:normal;font-variant-caps:normal;font-variant-numeric:normal;font-feature-settings:normal;text-align:start;writing-mode:lr-tb;text-anchor:start;stroke-width:0.83792454"
         id="path8252"
         inkscape:connector-curvature="0" />
      <path
         d="m 92.903018,249.20071 h 4.566034 q 0.5728,0 0.965577,0.40914 0.409143,0.39278 0.409143,0.96558 0,0.60553 -0.441874,1.01467 -0.425509,0.39278 -0.932846,0.39278 h -4.35328 q -0.638263,0 -1.112869,0.60553 l -3.862308,4.95881 q -0.490972,0.58917 -0.490972,1.63658 v 7.61005 q 0,0.58917 0.392777,0.99831 0.409143,0.40914 0.981943,0.40914 h 5.597075 q 0.556434,0 0.965577,-0.40914 0.409143,-0.40914 0.409143,-0.96558 v -2.97856 h -2.847635 q -0.589165,0 -0.981943,-0.39277 -0.392777,-0.40915 -0.392777,-0.98195 0,-0.5728 0.392777,-0.96557 0.392778,-0.40915 0.981943,-0.40915 h 5.597075 v 5.728 q 0,1.70204 -1.211063,2.9131 -1.211063,1.21106 -2.913097,1.21106 h -5.597075 q -1.7184,0 -2.945828,-1.21106 -1.211063,-1.21106 -1.211063,-2.9131 v -7.61005 q 0,-2.04572 1.096503,-3.45317 l 4.058697,-5.1552 q 0.441874,-0.58916 1.227428,-0.99831 0.80192,-0.40914 1.652938,-0.40914 z"
         style="font-style:normal;font-variant:normal;font-weight:normal;font-stretch:normal;font-size:33.51698303px;font-family:'OCR A Extended';-inkscape-font-specification:'OCR A Extended, Normal';font-variant-ligatures:normal;font-variant-caps:normal;font-variant-numeric:normal;font-feature-settings:normal;text-align:start;writing-mode:lr-tb;text-anchor:start;stroke-width:0.83792454"
         id="path8254"
         inkscape:connector-curvature="0" />
      <path
         d="m 106.50293,249.20071 h 11.12868 q 0.54007,0 0.94921,0.40914 0.42551,0.40915 0.42551,0.96558 0,0.5728 -0.40914,0.99831 -0.40914,0.40914 -0.96558,0.40914 h -4.15689 v 16.21842 h 4.15689 q 0.5728,0 0.96558,0.40915 0.40914,0.39277 0.40914,0.96557 0,0.5728 -0.40914,0.98195 -0.40914,0.39277 -0.96558,0.39277 h -11.12868 q -0.5728,0 -0.98195,-0.39277 -0.39277,-0.40915 -0.39277,-0.98195 0,-0.5728 0.39277,-0.96557 0.40915,-0.40915 0.98195,-0.40915 h 4.22235 v -16.21842 h -4.22235 q -0.5728,0 -0.98195,-0.40914 -0.39277,-0.40914 -0.39277,-0.96558 0,-0.58916 0.39277,-0.99831 0.40915,-0.40914 0.98195,-0.40914 z"
         style="font-style:normal;font-variant:normal;font-weight:normal;font-stretch:normal;font-size:33.51698303px;font-family:'OCR A Extended';-inkscape-font-specification:'OCR A Extended, Normal';font-variant-ligatures:normal;font-variant-caps:normal;font-variant-numeric:normal;font-feature-settings:normal;text-align:start;writing-mode:lr-tb;text-anchor:start;stroke-width:0.83792454"
         id="path8256"
         inkscape:connector-curvature="0" />
    </g>
    <path
       sodipodi:open="true"
       d="m 141.99599,265.75884 a 9.48207,9.48207 0 0 1 -10.53528,3.00794 9.48207,9.48207 0 0 1 -6.33923,-8.9361 9.48207,9.48207 0 0 1 6.32043,-8.94942 9.48207,9.48207 0 0 1 10.54158,2.98579"
       sodipodi:end="5.6043514"
       sodipodi:start="0.6767316"
       sodipodi:ry="9.48207"
       sodipodi:rx="9.48207"
       sodipodi:cy="259.82071"
       sodipodi:cx="134.60355"
       sodipodi:type="arc"
       id="path5163"
       style="fill:none;fill-opacity:1;stroke:#000000;stroke-width:1.37018871;stroke-linejoin:bevel;stroke-miterlimit:4;stroke-dasharray:none;stroke-opacity:1" />
    <path
       sodipodi:open="true"
       d="m 170.90124,265.39263 a 9.48207,9.48207 0 0 1 -10.53528,3.00794 9.48207,9.48207 0 0 1 -6.33924,-8.9361 9.48207,9.48207 0 0 1 6.32043,-8.94942 9.48207,9.48207 0 0 1 10.54159,2.98579"
       sodipodi:end="5.6043514"
       sodipodi:start="0.6767316"
       sodipodi:ry="9.48207"
       sodipodi:rx="9.48207"
       sodipodi:cy="259.4545"
       sodipodi:cx="163.50879"
       sodipodi:type="arc"
       id="path5165"
       style="fill:none;fill-opacity:1;stroke:#000000;stroke-width:1.37018871;stroke-linejoin:bevel;stroke-miterlimit:4;stroke-dasharray:none;stroke-opacity:1" />
    <path
       inkscape:connector-curvature="0"
       id="path5167"
       d="m 148.82957,250.65074 v 18.31049"
       style="fill:none;stroke:#000000;stroke-width:1.37018871;stroke-linecap:butt;stroke-linejoin:miter;stroke-miterlimit:4;stroke-dasharray:none;stroke-opacity:1" />
    <path
       inkscape:connector-curvature="0"
       id="path5169"
       d="m 175.99943,250.31398 v 18.31049"
       style="fill:none;stroke:#000000;stroke-width:1.37018871;stroke-linecap:butt;stroke-linejoin:miter;stroke-miterlimit:4;stroke-dasharray:none;stroke-opacity:1" />
    <path
       inkscape:connector-curvature="0"
       id="path5171"
       d="m 175.99943,268.62447 14.91321,0.35148"
       style="fill:none;stroke:#000000;stroke-width:1.37018871;stroke-linecap:butt;stroke-linejoin:miter;stroke-miterlimit:4;stroke-dasharray:none;stroke-opacity:1" />
    <path
       inkscape:connector-curvature="0"
       id="path5173"
       d="m 153.55927,260.18693 h 17.57807"
       style="fill:none;stroke:#000000;stroke-width:1.37018871;stroke-linecap:butt;stroke-linejoin:miter;stroke-miterlimit:4;stroke-dasharray:none;stroke-opacity:1" />
  </g>
  <g
     inkscape:label="Mountain"
     inkscape:groupmode="layer"
     id="layer1"
     style="display:inline"
     sodipodi:insensitive="true">
    <path
       style="fill:none;stroke:#000000;stroke-width:1;stroke-linecap:butt;stroke-linejoin:miter;stroke-miterlimit:4;stroke-dasharray:none;stroke-opacity:1"
       d="m 16.630952,241.05952 47.624999,-46.11309 3.779763,-10.58334 3.779761,-1.5119 3.779763,-15.875 9.827379,-13.60714 h 5.291667 L 92.22619,138.25 102.80952,123.13095 h 17.38691"
       id="path4733"
       inkscape:connector-curvature="0" />
    <path
       style="fill:none;stroke:#000000;stroke-width:1;stroke-linecap:butt;stroke-linejoin:miter;stroke-miterlimit:4;stroke-dasharray:none;stroke-opacity:1"
       d="m 120.19643,123.13095 26.83631,21.16667 1.5119,20.41071 33.26191,37.04167"
       id="path4737"
       inkscape:connector-curvature="0"
       sodipodi:nodetypes="cccc" />
    <path
       style="fill:none;stroke:#000000;stroke-width:1;stroke-linecap:butt;stroke-linejoin:miter;stroke-miterlimit:4;stroke-dasharray:none;stroke-opacity:1"
       d="m 99.203667,182.92159 3.779763,-15.875 9.82738,-13.60714"
       id="path4733-5"
       inkscape:connector-curvature="0"
       sodipodi:nodetypes="ccc" />
    <path
       style="fill:none;stroke:#000000;stroke-width:1;stroke-linecap:butt;stroke-linejoin:miter;stroke-miterlimit:4;stroke-dasharray:none;stroke-opacity:1"
       d="m 112.81081,153.43945 -22.096526,-0.0704"
       id="path4758"
       inkscape:connector-curvature="0" />
    <path
       style="fill:none;stroke:#000000;stroke-width:1;stroke-linecap:butt;stroke-linejoin:miter;stroke-miterlimit:4;stroke-dasharray:none;stroke-opacity:1"
       d="m 99.203665,182.92159 -27.38819,-0.0704"
       id="path4760"
       inkscape:connector-curvature="0" />
    <path
       style="fill:none;stroke:#000000;stroke-width:1;stroke-linecap:butt;stroke-linejoin:miter;stroke-miterlimit:4;stroke-dasharray:none;stroke-opacity:1"
       d="M 99.203665,182.92159 84.28869,216.86904 66.901784,238.79166"
       id="path4762"
       inkscape:connector-curvature="0" />
    <path
       style="fill:none;stroke:#000000;stroke-width:1;stroke-linecap:butt;stroke-linejoin:miter;stroke-miterlimit:4;stroke-dasharray:none;stroke-opacity:1"
       d="m 84.28869,216.86904 6.047618,24.19048"
       id="path4764"
       inkscape:connector-curvature="0" />
    <path
       style="fill:none;stroke:#000000;stroke-width:1;stroke-linecap:butt;stroke-linejoin:miter;stroke-miterlimit:4;stroke-dasharray:none;stroke-opacity:1"
       d="m 102.80952,123.13095 10.00129,30.3085"
       id="path4782"
       inkscape:connector-curvature="0" />
    <path
       style="fill:none;stroke:#000000;stroke-width:1;stroke-linecap:butt;stroke-linejoin:miter;stroke-miterlimit:4;stroke-dasharray:none;stroke-opacity:1"
       d="m 99.203665,182.92159 57.656455,61.16174"
       id="path4784"
       inkscape:connector-curvature="0" />
  </g>
  <g
     inkscape:label="Airplane"
     inkscape:groupmode="layer"
     id="g5233"
     style="display:inline">
    <g
       id="g5211"
       transform="translate(-45.970358,-73.766389)">
      <g
         id="g8292"
         transform="translate(5.3453905,5.3453905)">
        <path
           style="fill:none;fill-opacity:1;stroke:#000000;stroke-width:0.5;stroke-linecap:butt;stroke-linejoin:miter;stroke-miterlimit:4;stroke-dasharray:none;stroke-opacity:1"
           d="M 66.901784,238.79166 C 97.139875,215.35713 103.1875,114.81548 103.1875,114.81548 c 0,0 -6.047618,114.90476 -21.922619,123.22023"
           id="path5199"
           inkscape:connector-curvature="0"
           sodipodi:nodetypes="ccc" />
        <g
           style="fill:#ffffff;stroke:#000000;stroke-width:1.22946811;stroke-miterlimit:4;stroke-dasharray:none"
           id="g5209"
           transform="matrix(0.44197768,0,0,0.37420116,19.08096,62.385111)">
          <g
             style="fill:#ffffff;stroke:#000000;stroke-width:1.22946811;stroke-miterlimit:4;stroke-dasharray:none"
             id="g5205">
            <path
               style="fill:#ffffff;stroke:#000000;stroke-width:1.22946811;stroke-linecap:butt;stroke-linejoin:miter;stroke-miterlimit:4;stroke-dasharray:none;stroke-opacity:1"
               d="m 187.89048,86.391611 c 0,0 -2.13816,3.207234 -2.93997,8.819894 -0.80181,5.612665 -2.13816,2.138156 -2.67269,8.285355 -0.53454,6.1472 2.40542,10.69078 2.40542,10.69078 l -2.67269,4.00904 v -3.74177 l -0.53454,10.95805 4.00904,2.13816 -2.93996,-1.60362 -4.81086,5.61266 v 3.20724 l 7.21628,-0.26727"
               id="path5201"
               inkscape:connector-curvature="0" />
            <path
               style="fill:#ffffff;stroke:#000000;stroke-width:1.22946811;stroke-linecap:butt;stroke-linejoin:miter;stroke-miterlimit:4;stroke-dasharray:none;stroke-opacity:1"
               d="m 184.95051,134.50013 0.13364,-1.33635 v 5.61266 l 0.80181,2.80633 0.93544,-1.46998 h 3.4745 v -2.93997 l -0.26727,-0.80181 -0.13363,-5.34539 c 0,0 1.33635,-3.0736 1.73725,-7.34991 0.4009,-4.27631 -2.27179,-12.6953 -2.27179,-12.6953 V 95.478776 c 0,0 0,-4.543586 -1.46998,-9.087167"
               id="path5203"
               inkscape:connector-curvature="0"
               sodipodi:nodetypes="cccccccccsccc" />
          </g>
          <path
             inkscape:connector-curvature="0"
             id="path5207"
             d="m 186.62095,133.29741 -1.5368,3.87541"
             style="fill:#ffffff;stroke:#000000;stroke-width:1.22946811;stroke-linecap:butt;stroke-linejoin:miter;stroke-miterlimit:4;stroke-dasharray:none;stroke-opacity:1" />
        </g>
      </g>
    </g>
  </g>
</svg>
