<?xml version="1.0" encoding="UTF-8" standalone="no"?>
<!-- Created with Inkscape (http://www.inkscape.org/) -->

<svg
   xmlns:dc="http://purl.org/dc/elements/1.1/"
   xmlns:cc="http://creativecommons.org/ns#"
   xmlns:rdf="http://www.w3.org/1999/02/22-rdf-syntax-ns#"
   xmlns:svg="http://www.w3.org/2000/svg"
   xmlns="http://www.w3.org/2000/svg"
   xmlns:sodipodi="http://sodipodi.sourceforge.net/DTD/sodipodi-0.dtd"
   xmlns:inkscape="http://www.inkscape.org/namespaces/inkscape"
   width="210mm"
   height="297mm"
   viewBox="0 0 210 297"
   version="1.1"
   id="svg8"
   inkscape:version="0.92.0 r15299"
   sodipodi:docname="Logo2GTExport_Complete.svg">
  <defs
     id="defs2" />
  <sodipodi:namedview
     id="base"
     pagecolor="#ffffff"
     bordercolor="#666666"
     borderopacity="1.0"
     inkscape:pageopacity="0.0"
     inkscape:pageshadow="2"
     inkscape:zoom="0.49497475"
     inkscape:cx="-75.754492"
     inkscape:cy="591.44568"
     inkscape:document-units="mm"
     inkscape:current-layer="g5179"
     showgrid="false"
     inkscape:window-width="1404"
     inkscape:window-height="1008"
     inkscape:window-x="-7"
     inkscape:window-y="0"
     inkscape:window-maximized="0" />
  <metadata
     id="metadata5">
    <rdf:RDF>
      <cc:Work
         rdf:about="">
        <dc:format>image/svg+xml</dc:format>
        <dc:type
           rdf:resource="http://purl.org/dc/dcmitype/StillImage" />
        <dc:title></dc:title>
      </cc:Work>
    </rdf:RDF>
  </metadata>
  <g
     style="display:inline"
     id="g5179"
     inkscape:groupmode="layer"
     inkscape:label="Text">
    <g
       aria-label="LOGI"
       style="font-style:normal;font-variant:normal;font-weight:normal;font-stretch:normal;font-size:33.51698303px;line-height:20.9481144px;font-family:'OCR A Extended';-inkscape-font-specification:'OCR A Extended, Normal';font-variant-ligatures:normal;font-variant-caps:normal;font-variant-numeric:normal;font-feature-settings:normal;text-align:start;letter-spacing:0px;word-spacing:0px;writing-mode:lr-tb;text-anchor:start;fill:#000000;fill-opacity:1;stroke:none;stroke-width:0.83792454"
       id="text5161">
      <path
         d="m 44.476868,270.95074 v -20.37531 q 0,-0.55643 0.409142,-0.96558 0.409143,-0.40914 0.965578,-0.40914 0.556434,0 0.965577,0.40914 0.409143,0.40915 0.409143,0.96558 v 17.62587 h 9.721234 q 0.5728,0 0.981943,0.40915 0.425508,0.39277 0.425508,0.96557 0,0.5728 -0.425508,0.98195 -0.409143,0.39277 -0.981943,0.39277 z"
         style="font-style:normal;font-variant:normal;font-weight:normal;font-stretch:normal;font-size:33.51698303px;font-family:'OCR A Extended';-inkscape-font-specification:'OCR A Extended, Normal';font-variant-ligatures:normal;font-variant-caps:normal;font-variant-numeric:normal;font-feature-settings:normal;text-align:start;writing-mode:lr-tb;text-anchor:start;stroke-width:0.83792454"
         id="path8250"
         inkscape:connector-curvature="0" />
      <path
         d="m 74.884365,251.21369 3.027658,6.16988 q 0.638262,1.26016 0.638262,2.73307 0,1.44018 -0.638262,2.71671 l -3.027658,6.10441 q -0.965577,2.01298 -3.273142,2.01298 -1.096503,0 -1.980252,-0.5728 -0.867383,-0.5728 -1.309257,-1.44018 l -3.044023,-6.10441 q -0.605531,-1.1947 -0.605531,-2.71671 0,-1.52201 0.605531,-2.73307 l 3.044023,-6.16988 q 1.03104,-2.01298 3.289509,-2.01298 2.2912,0 3.273142,2.01298 z m -4.189622,1.37472 -2.847635,5.79347 q -0.392777,0.86738 -0.392777,1.70203 0,0.90011 0.392777,1.7184 l 2.929463,5.85893 q 0.22912,0.54006 0.834652,0.54006 0.523702,0 0.80192,-0.54006 l 2.945828,-5.85893 q 0.409143,-0.86738 0.409143,-1.7184 0,-0.90011 -0.409143,-1.70203 l -2.880366,-5.79347 q -0.278217,-0.63826 -0.867382,-0.63826 -0.589166,0 -0.91648,0.63826 z"
         style="font-style:normal;font-variant:normal;font-weight:normal;font-stretch:normal;font-size:33.51698303px;font-family:'OCR A Extended';-inkscape-font-specification:'OCR A Extended, Normal';font-variant-ligatures:normal;font-variant-caps:normal;font-variant-numeric:normal;font-feature-settings:normal;text-align:start;writing-mode:lr-tb;text-anchor:start;stroke-width:0.83792454"
         id="path8252"
         inkscape:connector-curvature="0" />
      <path
         d="m 92.903018,249.20071 h 4.566034 q 0.5728,0 0.965577,0.40914 0.409143,0.39278 0.409143,0.96558 0,0.60553 -0.441874,1.01467 -0.425509,0.39278 -0.932846,0.39278 h -4.35328 q -0.638263,0 -1.112869,0.60553 l -3.862308,4.95881 q -0.490972,0.58917 -0.490972,1.63658 v 7.61005 q 0,0.58917 0.392777,0.99831 0.409143,0.40914 0.981943,0.40914 h 5.597075 q 0.556434,0 0.965577,-0.40914 0.409143,-0.40914 0.409143,-0.96558 v -2.97856 h -2.847635 q -0.589165,0 -0.981943,-0.39277 -0.392777,-0.40915 -0.392777,-0.98195 0,-0.5728 0.392777,-0.96557 0.392778,-0.40915 0.981943,-0.40915 h 5.597075 v 5.728 q 0,1.70204 -1.211063,2.9131 -1.211063,1.21106 -2.913097,1.21106 h -5.597075 q -1.7184,0 -2.945828,-1.21106 -1.211063,-1.21106 -1.211063,-2.9131 v -7.61005 q 0,-2.04572 1.096503,-3.45317 l 4.058697,-5.1552 q 0.441874,-0.58916 1.227428,-0.99831 0.80192,-0.40914 1.652938,-0.40914 z"
         style="font-style:normal;font-variant:normal;font-weight:normal;font-stretch:normal;font-size:33.51698303px;font-family:'OCR A Extended';-inkscape-font-specification:'OCR A Extended, Normal';font-variant-ligatures:normal;font-variant-caps:normal;font-variant-numeric:normal;font-feature-settings:normal;text-align:start;writing-mode:lr-tb;text-anchor:start;stroke-width:0.83792454"
         id="path8254"
         inkscape:connector-curvature="0" />
      <path
         d="m 106.50293,249.20071 h 11.12868 q 0.54007,0 0.94921,0.40914 0.42551,0.40915 0.42551,0.96558 0,0.5728 -0.40914,0.99831 -0.40914,0.40914 -0.96558,0.40914 h -4.15689 v 16.21842 h 4.15689 q 0.5728,0 0.96558,0.40915 0.40914,0.39277 0.40914,0.96557 0,0.5728 -0.40914,0.98195 -0.40914,0.39277 -0.96558,0.39277 h -11.12868 q -0.5728,0 -0.98195,-0.39277 -0.39277,-0.40915 -0.39277,-0.98195 0,-0.5728 0.39277,-0.96557 0.40915,-0.40915 0.98195,-0.40915 h 4.22235 v -16.21842 h -4.22235 q -0.5728,0 -0.98195,-0.40914 -0.39277,-0.40914 -0.39277,-0.96558 0,-0.58916 0.39277,-0.99831 0.40915,-0.40914 0.98195,-0.40914 z"
         style="font-style:normal;font-variant:normal;font-weight:normal;font-stretch:normal;font-size:33.51698303px;font-family:'OCR A Extended';-inkscape-font-specification:'OCR A Extended, Normal';font-variant-ligatures:normal;font-variant-caps:normal;font-variant-numeric:normal;font-feature-settings:normal;text-align:start;writing-mode:lr-tb;text-anchor:start;stroke-width:0.83792454"
         id="path8256"
         inkscape:connector-curvature="0" />
    </g>
    <path
       sodipodi:open="true"
       d="m 141.99599,265.75884 a 9.48207,9.48207 0 0 1 -10.53528,3.00794 9.48207,9.48207 0 0 1 -6.33923,-8.9361 9.48207,9.48207 0 0 1 6.32043,-8.94942 9.48207,9.48207 0 0 1 10.54158,2.98579"
       sodipodi:end="5.6043514"
       sodipodi:start="0.6767316"
       sodipodi:ry="9.48207"
       sodipodi:rx="9.48207"
       sodipodi:cy="259.82071"
       sodipodi:cx="134.60355"
       sodipodi:type="arc"
       id="path5163"
       style="fill:none;fill-opacity:1;stroke:#000000;stroke-width:1.37018871;stroke-linejoin:bevel;stroke-miterlimit:4;stroke-dasharray:none;stroke-opacity:1" />
    <path
       sodipodi:open="true"
       d="m 170.90124,265.39263 a 9.48207,9.48207 0 0 1 -10.53528,3.00794 9.48207,9.48207 0 0 1 -6.33924,-8.9361 9.48207,9.48207 0 0 1 6.32043,-8.94942 9.48207,9.48207 0 0 1 10.54159,2.98579"
       sodipodi:end="5.6043514"
       sodipodi:start="0.6767316"
       sodipodi:ry="9.48207"
       sodipodi:rx="9.48207"
       sodipodi:cy="259.4545"
       sodipodi:cx="163.50879"
       sodipodi:type="arc"
       id="path5165"
       style="fill:none;fill-opacity:1;stroke:#000000;stroke-width:1.37018871;stroke-linejoin:bevel;stroke-miterlimit:4;stroke-dasharray:none;stroke-opacity:1" />
    <path
       inkscape:connector-curvature="0"
       id="path5167"
       d="m 148.82957,250.65074 v 18.31049"
       style="fill:none;stroke:#000000;stroke-width:1.37018871;stroke-linecap:butt;stroke-linejoin:miter;stroke-miterlimit:4;stroke-dasharray:none;stroke-opacity:1" />
    <path
       inkscape:connector-curvature="0"
       id="path5169"
       d="m 175.99943,250.31398 v 18.31049"
       style="fill:none;stroke:#000000;stroke-width:1.37018871;stroke-linecap:butt;stroke-linejoin:miter;stroke-miterlimit:4;stroke-dasharray:none;stroke-opacity:1" />
    <path
       inkscape:connector-curvature="0"
       id="path5171"
       d="m 175.99943,268.62447 14.91321,0.35148"
       style="fill:none;stroke:#000000;stroke-width:1.37018871;stroke-linecap:butt;stroke-linejoin:miter;stroke-miterlimit:4;stroke-dasharray:none;stroke-opacity:1" />
    <path
       inkscape:connector-curvature="0"
       id="path5173"
       d="m 153.55927,260.18693 h 17.57807"
       style="fill:none;stroke:#000000;stroke-width:1.37018871;stroke-linecap:butt;stroke-linejoin:miter;stroke-miterlimit:4;stroke-dasharray:none;stroke-opacity:1" />
  </g>
</svg>
